# xmcd
#
# Track frame offsets:
#	150
#	12053
#	30474
#	46038
#	61322
#	76120
#	93232
#	108622
#	124819
#	140607
#	155425
#	175829
#	188829
#	212493
#	228048
#	232114
#	248039
#	268723
#	287871
#
# Disc length: 4114 seconds
#
# Revision: 0
# Processed by: cddbd v1.5.1PL0 Copyright (c) Steve Scherf et al.
# Submitted via: EasyCDDAExtractor 4.6.9.1
#
DISCID=f6101013
DTITLE=Martina McBride - Greatest Hits
DYEAR=2001
DGENRE=Country
TTITLE0=My Baby Loves Me
TTITLE1=Life #9
TTITLE2=Independence Day
TTITLE3=Strangers
TTITLE4=Safe in the Arms of Love
TTITLE5=Wild Angels
TTITLE6=Valentine
TTITLE7=A Broken Wing
TTITLE8=Happy Girl
TTITLE9=Wrong Again
TTITLE10=Whatever You Say
TTITLE11=I Love You
TTITLE12=Love's the Only House
TTITLE13=There You Are
TTITLE14=When God-Fearin Women Get the Blues (Intro)
TTITLE15=When God-Fearin Women Get the Blues
TTITLE16=Where Would You Be
TTITLE17=Concrete Angel
TTITLE18=Blessed
EXTD=
EXTT0=
EXTT1=
EXTT2=
EXTT3=
EXTT4=
EXTT5=
EXTT6=
EXTT7=
EXTT8=
EXTT9=
EXTT10=
EXTT11=
EXTT12=
EXTT13=
EXTT14=
EXTT15=
EXTT16=
EXTT17=
EXTT18=
PLAYORDER=
